<svg width="748" height="498" viewBox="0 0 748 498" fill="none" xmlns="http://www.w3.org/2000/svg">
<g filter="url(#filter0_d_1_692)">
<path d="M60 80C60 63.4315 73.4315 50 90 50H658C674.569 50 688 63.4315 688 80V398C688 414.569 674.569 428 658 428H90C73.4314 428 60 414.569 60 398V80Z" fill="white"/>
</g>
<rect x="533" y="77" width="118" height="38" rx="10" fill="#F9FBFF"/>
<path d="M622 93L628 99L634 93" stroke="#7E7E7E" stroke-width="2" stroke-linecap="round" stroke-linejoin="round"/>
<path d="M582.78 91.636L580.056 96.844V100H578.964V96.844L576.228 91.636H577.44L579.504 95.872L581.568 91.636H582.78ZM584.376 92.356C584.168 92.356 583.992 92.284 583.848 92.14C583.704 91.996 583.632 91.82 583.632 91.612C583.632 91.404 583.704 91.228 583.848 91.084C583.992 90.94 584.168 90.868 584.376 90.868C584.576 90.868 584.744 90.94 584.88 91.084C585.024 91.228 585.096 91.404 585.096 91.612C585.096 91.82 585.024 91.996 584.88 92.14C584.744 92.284 584.576 92.356 584.376 92.356ZM584.904 93.424V100H583.812V93.424H584.904ZM587.737 91.12V100H586.645V91.12H587.737ZM590.57 91.12V100H589.478V91.12H590.57ZM591.903 96.688C591.903 96.016 592.039 95.428 592.311 94.924C592.583 94.412 592.955 94.016 593.427 93.736C593.907 93.456 594.439 93.316 595.023 93.316C595.599 93.316 596.099 93.44 596.523 93.688C596.947 93.936 597.263 94.248 597.471 94.624V93.424H598.575V100H597.471V98.776C597.255 99.16 596.931 99.48 596.499 99.736C596.075 99.984 595.579 100.108 595.011 100.108C594.427 100.108 593.899 99.964 593.427 99.676C592.955 99.388 592.583 98.984 592.311 98.464C592.039 97.944 591.903 97.352 591.903 96.688ZM597.471 96.7C597.471 96.204 597.371 95.772 597.171 95.404C596.971 95.036 596.699 94.756 596.355 94.564C596.019 94.364 595.647 94.264 595.239 94.264C594.831 94.264 594.459 94.36 594.123 94.552C593.787 94.744 593.519 95.024 593.319 95.392C593.119 95.76 593.019 96.192 593.019 96.688C593.019 97.192 593.119 97.632 593.319 98.008C593.519 98.376 593.787 98.66 594.123 98.86C594.459 99.052 594.831 99.148 595.239 99.148C595.647 99.148 596.019 99.052 596.355 98.86C596.699 98.66 596.971 98.376 597.171 98.008C597.371 97.632 597.471 97.196 597.471 96.7ZM601.393 94.492C601.585 94.116 601.857 93.824 602.209 93.616C602.569 93.408 603.005 93.304 603.517 93.304V94.432H603.229C602.005 94.432 601.393 95.096 601.393 96.424V100H600.301V93.424H601.393V94.492Z" fill="#7E7E7E"/>
<path d="M111.728 82.644L106.536 92.654V98H103.456V92.654L98.242 82.644H101.718L105.018 89.662L108.296 82.644H111.728ZM114.846 84.36C114.304 84.36 113.849 84.1913 113.482 83.854C113.13 83.502 112.954 83.0693 112.954 82.556C112.954 82.0427 113.13 81.6173 113.482 81.28C113.849 80.928 114.304 80.752 114.846 80.752C115.389 80.752 115.836 80.928 116.188 81.28C116.555 81.6173 116.738 82.0427 116.738 82.556C116.738 83.0693 116.555 83.502 116.188 83.854C115.836 84.1913 115.389 84.36 114.846 84.36ZM116.364 85.812V98H113.284V85.812H116.364ZM122.267 81.72V98H119.187V81.72H122.267ZM128.17 81.72V98H125.09V81.72H128.17ZM132.555 84.36C132.013 84.36 131.558 84.1913 131.191 83.854C130.839 83.502 130.663 83.0693 130.663 82.556C130.663 82.0427 130.839 81.6173 131.191 81.28C131.558 80.928 132.013 80.752 132.555 80.752C133.098 80.752 133.545 80.928 133.897 81.28C134.264 81.6173 134.447 82.0427 134.447 82.556C134.447 83.0693 134.264 83.502 133.897 83.854C133.545 84.1913 133.098 84.36 132.555 84.36ZM134.073 85.812V98H130.993V85.812H134.073ZM144.113 98L139.977 92.808V98H136.897V81.72H139.977V90.982L144.069 85.812H148.073L142.705 91.928L148.117 98H144.113ZM159.848 98.154C158.778 98.154 157.81 97.9707 156.944 97.604C156.094 97.2373 155.419 96.7093 154.92 96.02C154.422 95.3307 154.165 94.5167 154.15 93.578H157.45C157.494 94.2087 157.714 94.7073 158.11 95.074C158.521 95.4407 159.078 95.624 159.782 95.624C160.501 95.624 161.066 95.4553 161.476 95.118C161.887 94.766 162.092 94.3113 162.092 93.754C162.092 93.2993 161.953 92.9253 161.674 92.632C161.396 92.3387 161.044 92.1113 160.618 91.95C160.208 91.774 159.636 91.5833 158.902 91.378C157.905 91.0847 157.091 90.7987 156.46 90.52C155.844 90.2267 155.309 89.794 154.854 89.222C154.414 88.6353 154.194 87.858 154.194 86.89C154.194 85.9807 154.422 85.1887 154.876 84.514C155.331 83.8393 155.969 83.326 156.79 82.974C157.612 82.6073 158.55 82.424 159.606 82.424C161.19 82.424 162.474 82.8127 163.456 83.59C164.454 84.3527 165.004 85.4233 165.106 86.802H161.718C161.689 86.274 161.462 85.8413 161.036 85.504C160.626 85.152 160.076 84.976 159.386 84.976C158.785 84.976 158.301 85.13 157.934 85.438C157.582 85.746 157.406 86.1933 157.406 86.78C157.406 87.1907 157.538 87.5353 157.802 87.814C158.081 88.078 158.418 88.298 158.814 88.474C159.225 88.6353 159.797 88.826 160.53 89.046C161.528 89.3393 162.342 89.6327 162.972 89.926C163.603 90.2193 164.146 90.6593 164.6 91.246C165.055 91.8327 165.282 92.6027 165.282 93.556C165.282 94.3773 165.07 95.14 164.644 95.844C164.219 96.548 163.596 97.1127 162.774 97.538C161.953 97.9487 160.978 98.154 159.848 98.154ZM171.319 88.342V94.238C171.319 94.6487 171.414 94.9493 171.605 95.14C171.81 95.316 172.147 95.404 172.617 95.404H174.047V98H172.111C169.515 98 168.217 96.7387 168.217 94.216V88.342H166.765V85.812H168.217V82.798H171.319V85.812H174.047V88.342H171.319ZM175.25 91.862C175.25 90.63 175.492 89.5373 175.976 88.584C176.475 87.6307 177.142 86.8973 177.978 86.384C178.829 85.8707 179.775 85.614 180.816 85.614C181.725 85.614 182.517 85.7973 183.192 86.164C183.881 86.5307 184.431 86.9927 184.842 87.55V85.812H187.944V98H184.842V96.218C184.446 96.79 183.896 97.2667 183.192 97.648C182.503 98.0147 181.703 98.198 180.794 98.198C179.767 98.198 178.829 97.934 177.978 97.406C177.142 96.878 176.475 96.1373 175.976 95.184C175.492 94.216 175.25 93.1087 175.25 91.862ZM184.842 91.906C184.842 91.158 184.695 90.52 184.402 89.992C184.109 89.4493 183.713 89.0387 183.214 88.76C182.715 88.4667 182.18 88.32 181.608 88.32C181.036 88.32 180.508 88.4593 180.024 88.738C179.54 89.0167 179.144 89.4273 178.836 89.97C178.543 90.498 178.396 91.1287 178.396 91.862C178.396 92.5953 178.543 93.2407 178.836 93.798C179.144 94.3407 179.54 94.7587 180.024 95.052C180.523 95.3453 181.051 95.492 181.608 95.492C182.18 95.492 182.715 95.3527 183.214 95.074C183.713 94.7807 184.109 94.37 184.402 93.842C184.695 93.2993 184.842 92.654 184.842 91.906ZM194.318 88.342V94.238C194.318 94.6487 194.413 94.9493 194.604 95.14C194.809 95.316 195.147 95.404 195.616 95.404H197.046V98H195.11C192.514 98 191.216 96.7387 191.216 94.216V88.342H189.764V85.812H191.216V82.798H194.318V85.812H197.046V88.342H194.318ZM200.603 84.36C200.061 84.36 199.606 84.1913 199.239 83.854C198.887 83.502 198.711 83.0693 198.711 82.556C198.711 82.0427 198.887 81.6173 199.239 81.28C199.606 80.928 200.061 80.752 200.603 80.752C201.146 80.752 201.593 80.928 201.945 81.28C202.312 81.6173 202.495 82.0427 202.495 82.556C202.495 83.0693 202.312 83.502 201.945 83.854C201.593 84.1913 201.146 84.36 200.603 84.36ZM202.121 85.812V98H199.041V85.812H202.121ZM209.608 98.198C208.611 98.198 207.716 98.022 206.924 97.67C206.132 97.3033 205.502 96.812 205.032 96.196C204.578 95.58 204.328 94.898 204.284 94.15H207.386C207.445 94.6193 207.672 95.008 208.068 95.316C208.479 95.624 208.985 95.778 209.586 95.778C210.173 95.778 210.628 95.6607 210.95 95.426C211.288 95.1913 211.456 94.8907 211.456 94.524C211.456 94.128 211.251 93.8347 210.84 93.644C210.444 93.4387 209.806 93.2187 208.926 92.984C208.017 92.764 207.269 92.5367 206.682 92.302C206.11 92.0673 205.612 91.708 205.186 91.224C204.776 90.74 204.57 90.0873 204.57 89.266C204.57 88.5913 204.761 87.9753 205.142 87.418C205.538 86.8607 206.096 86.4207 206.814 86.098C207.548 85.7753 208.406 85.614 209.388 85.614C210.84 85.614 211.999 85.9807 212.864 86.714C213.73 87.4327 214.206 88.408 214.294 89.64H211.346C211.302 89.156 211.097 88.7747 210.73 88.496C210.378 88.2027 209.902 88.056 209.3 88.056C208.743 88.056 208.31 88.1587 208.002 88.364C207.709 88.5693 207.562 88.8553 207.562 89.222C207.562 89.6327 207.768 89.948 208.178 90.168C208.589 90.3733 209.227 90.586 210.092 90.806C210.972 91.026 211.698 91.2533 212.27 91.488C212.842 91.7227 213.334 92.0893 213.744 92.588C214.17 93.072 214.39 93.7173 214.404 94.524C214.404 95.228 214.206 95.8587 213.81 96.416C213.429 96.9733 212.872 97.4133 212.138 97.736C211.42 98.044 210.576 98.198 209.608 98.198ZM220.299 88.342V94.238C220.299 94.6487 220.394 94.9493 220.585 95.14C220.79 95.316 221.127 95.404 221.597 95.404H223.027V98H221.091C218.495 98 217.197 96.7387 217.197 94.216V88.342H215.745V85.812H217.197V82.798H220.299V85.812H223.027V88.342H220.299ZM226.584 84.36C226.041 84.36 225.587 84.1913 225.22 83.854C224.868 83.502 224.692 83.0693 224.692 82.556C224.692 82.0427 224.868 81.6173 225.22 81.28C225.587 80.928 226.041 80.752 226.584 80.752C227.127 80.752 227.574 80.928 227.926 81.28C228.293 81.6173 228.476 82.0427 228.476 82.556C228.476 83.0693 228.293 83.502 227.926 83.854C227.574 84.1913 227.127 84.36 226.584 84.36ZM228.102 85.812V98H225.022V85.812H228.102ZM238.141 98L234.005 92.808V98H230.925V81.72H234.005V90.982L238.097 85.812H242.101L236.733 91.928L242.145 98H238.141ZM242.761 91.862C242.761 90.63 243.003 89.5373 243.487 88.584C243.985 87.6307 244.653 86.8973 245.489 86.384C246.339 85.8707 247.285 85.614 248.327 85.614C249.236 85.614 250.028 85.7973 250.703 86.164C251.392 86.5307 251.942 86.9927 252.353 87.55V85.812H255.455V98H252.353V96.218C251.957 96.79 251.407 97.2667 250.703 97.648C250.013 98.0147 249.214 98.198 248.305 98.198C247.278 98.198 246.339 97.934 245.489 97.406C244.653 96.878 243.985 96.1373 243.487 95.184C243.003 94.216 242.761 93.1087 242.761 91.862ZM252.353 91.906C252.353 91.158 252.206 90.52 251.913 89.992C251.619 89.4493 251.223 89.0387 250.725 88.76C250.226 88.4667 249.691 88.32 249.119 88.32C248.547 88.32 248.019 88.4593 247.535 88.738C247.051 89.0167 246.655 89.4273 246.347 89.97C246.053 90.498 245.907 91.1287 245.907 91.862C245.907 92.5953 246.053 93.2407 246.347 93.798C246.655 94.3407 247.051 94.7587 247.535 95.052C248.033 95.3453 248.561 95.492 249.119 95.492C249.691 95.492 250.226 95.3527 250.725 95.074C251.223 94.7807 251.619 94.37 251.913 93.842C252.206 93.2993 252.353 92.654 252.353 91.906Z" fill="black"/>
<path d="M111.632 378.44V382.448C111.632 382.944 111.48 383.336 111.176 383.624C110.877 383.912 110.483 384.056 109.992 384.056C109.501 384.056 109.104 383.912 108.8 383.624C108.501 383.336 108.352 382.944 108.352 382.448H109.272C109.277 382.693 109.339 382.888 109.456 383.032C109.579 383.176 109.757 383.248 109.992 383.248C110.227 383.248 110.405 383.176 110.528 383.032C110.651 382.883 110.712 382.688 110.712 382.448V378.44H111.632ZM112.732 381.776C112.732 381.333 112.822 380.941 113.004 380.6C113.19 380.259 113.441 379.995 113.756 379.808C114.076 379.616 114.428 379.52 114.812 379.52C115.158 379.52 115.46 379.589 115.716 379.728C115.977 379.861 116.185 380.029 116.34 380.232V379.592H117.26V384H116.34V383.344C116.185 383.552 115.974 383.725 115.708 383.864C115.441 384.003 115.137 384.072 114.796 384.072C114.417 384.072 114.07 383.976 113.756 383.784C113.441 383.587 113.19 383.315 113.004 382.968C112.822 382.616 112.732 382.219 112.732 381.776ZM116.34 381.792C116.34 381.488 116.276 381.224 116.148 381C116.025 380.776 115.862 380.605 115.66 380.488C115.457 380.371 115.238 380.312 115.004 380.312C114.769 380.312 114.55 380.371 114.348 380.488C114.145 380.6 113.98 380.768 113.852 380.992C113.729 381.211 113.668 381.472 113.668 381.776C113.668 382.08 113.729 382.347 113.852 382.576C113.98 382.805 114.145 382.981 114.348 383.104C114.556 383.221 114.774 383.28 115.004 383.28C115.238 383.28 115.457 383.221 115.66 383.104C115.862 382.987 116.025 382.816 116.148 382.592C116.276 382.363 116.34 382.096 116.34 381.792ZM120.602 379.52C120.948 379.52 121.258 379.592 121.53 379.736C121.807 379.88 122.023 380.093 122.178 380.376C122.332 380.659 122.41 381 122.41 381.4V384H121.506V381.536C121.506 381.141 121.407 380.84 121.21 380.632C121.012 380.419 120.743 380.312 120.402 380.312C120.06 380.312 119.788 380.419 119.586 380.632C119.388 380.84 119.29 381.141 119.29 381.536V384H118.378V379.592H119.29V380.096C119.439 379.915 119.628 379.773 119.858 379.672C120.092 379.571 120.34 379.52 120.602 379.52Z" fill="#4F4F4F"/>
<path d="M158.872 378.44V379.184H156.512V380.824H158.352V381.568H156.512V384H155.6V378.44H158.872ZM163.677 381.688C163.677 381.853 163.667 382.003 163.645 382.136H160.277C160.304 382.488 160.435 382.771 160.669 382.984C160.904 383.197 161.192 383.304 161.533 383.304C162.024 383.304 162.371 383.099 162.573 382.688H163.557C163.424 383.093 163.181 383.427 162.829 383.688C162.483 383.944 162.051 384.072 161.533 384.072C161.112 384.072 160.733 383.979 160.397 383.792C160.067 383.6 159.805 383.333 159.613 382.992C159.427 382.645 159.333 382.245 159.333 381.792C159.333 381.339 159.424 380.941 159.605 380.6C159.792 380.253 160.051 379.987 160.381 379.8C160.717 379.613 161.101 379.52 161.533 379.52C161.949 379.52 162.32 379.611 162.645 379.792C162.971 379.973 163.224 380.229 163.405 380.56C163.587 380.885 163.677 381.261 163.677 381.688ZM162.725 381.4C162.72 381.064 162.6 380.795 162.365 380.592C162.131 380.389 161.84 380.288 161.493 380.288C161.179 380.288 160.909 380.389 160.685 380.592C160.461 380.789 160.328 381.059 160.285 381.4H162.725ZM165.407 380.248C165.561 380.035 165.772 379.861 166.039 379.728C166.311 379.589 166.612 379.52 166.943 379.52C167.332 379.52 167.684 379.613 167.999 379.8C168.313 379.987 168.561 380.253 168.743 380.6C168.924 380.941 169.015 381.333 169.015 381.776C169.015 382.219 168.924 382.616 168.743 382.968C168.561 383.315 168.311 383.587 167.991 383.784C167.676 383.976 167.327 384.072 166.943 384.072C166.601 384.072 166.297 384.005 166.031 383.872C165.769 383.739 165.561 383.568 165.407 383.36V384H164.495V378.08H165.407V380.248ZM168.087 381.776C168.087 381.472 168.023 381.211 167.895 380.992C167.772 380.768 167.607 380.6 167.399 380.488C167.196 380.371 166.977 380.312 166.743 380.312C166.513 380.312 166.295 380.371 166.087 380.488C165.884 380.605 165.719 380.776 165.591 381C165.468 381.224 165.407 381.488 165.407 381.792C165.407 382.096 165.468 382.363 165.591 382.592C165.719 382.816 165.884 382.987 166.087 383.104C166.295 383.221 166.513 383.28 166.743 383.28C166.977 383.28 167.196 383.221 167.399 383.104C167.607 382.981 167.772 382.805 167.895 382.576C168.023 382.347 168.087 382.08 168.087 381.776Z" fill="#4F4F4F"/>
<path d="M208.456 378.44V384H207.544V380.192L205.848 384H205.216L203.512 380.192V384H202.6V378.44H203.584L205.536 382.8L207.48 378.44H208.456ZM209.271 381.776C209.271 381.333 209.361 380.941 209.543 380.6C209.729 380.259 209.98 379.995 210.295 379.808C210.615 379.616 210.967 379.52 211.351 379.52C211.697 379.52 211.999 379.589 212.255 379.728C212.516 379.861 212.724 380.029 212.879 380.232V379.592H213.799V384H212.879V383.344C212.724 383.552 212.513 383.725 212.247 383.864C211.98 384.003 211.676 384.072 211.335 384.072C210.956 384.072 210.609 383.976 210.295 383.784C209.98 383.587 209.729 383.315 209.543 382.968C209.361 382.616 209.271 382.219 209.271 381.776ZM212.879 381.792C212.879 381.488 212.815 381.224 212.687 381C212.564 380.776 212.401 380.605 212.199 380.488C211.996 380.371 211.777 380.312 211.543 380.312C211.308 380.312 211.089 380.371 210.887 380.488C210.684 380.6 210.519 380.768 210.391 380.992C210.268 381.211 210.207 381.472 210.207 381.776C210.207 382.08 210.268 382.347 210.391 382.576C210.519 382.805 210.684 382.981 210.887 383.104C211.095 383.221 211.313 383.28 211.543 383.28C211.777 383.28 211.996 383.221 212.199 383.104C212.401 382.987 212.564 382.816 212.687 382.592C212.815 382.363 212.879 382.096 212.879 381.792ZM215.829 380.232C215.962 380.008 216.138 379.835 216.357 379.712C216.581 379.584 216.845 379.52 217.149 379.52V380.464H216.917C216.559 380.464 216.287 380.555 216.101 380.736C215.919 380.917 215.829 381.232 215.829 381.68V384H214.917V379.592H215.829V380.232Z" fill="#4F4F4F"/>
<path d="M253.952 382.864H251.624L251.224 384H250.272L252.264 378.432H253.32L255.312 384H254.352L253.952 382.864ZM253.696 382.12L252.792 379.536L251.88 382.12H253.696ZM257.01 380.24C257.165 380.037 257.375 379.867 257.642 379.728C257.909 379.589 258.21 379.52 258.546 379.52C258.93 379.52 259.279 379.616 259.594 379.808C259.914 379.995 260.165 380.259 260.346 380.6C260.527 380.941 260.618 381.333 260.618 381.776C260.618 382.219 260.527 382.616 260.346 382.968C260.165 383.315 259.914 383.587 259.594 383.784C259.279 383.976 258.93 384.072 258.546 384.072C258.21 384.072 257.911 384.005 257.65 383.872C257.389 383.733 257.175 383.563 257.01 383.36V386.096H256.098V379.592H257.01V380.24ZM259.69 381.776C259.69 381.472 259.626 381.211 259.498 380.992C259.375 380.768 259.21 380.6 259.002 380.488C258.799 380.371 258.581 380.312 258.346 380.312C258.117 380.312 257.898 380.371 257.69 380.488C257.487 380.605 257.322 380.776 257.194 381C257.071 381.224 257.01 381.488 257.01 381.792C257.01 382.096 257.071 382.363 257.194 382.592C257.322 382.816 257.487 382.987 257.69 383.104C257.898 383.221 258.117 383.28 258.346 383.28C258.581 383.28 258.799 383.221 259.002 383.104C259.21 382.981 259.375 382.805 259.498 382.576C259.626 382.347 259.69 382.08 259.69 381.776ZM262.352 380.232C262.485 380.008 262.661 379.835 262.88 379.712C263.104 379.584 263.368 379.52 263.672 379.52V380.464H263.44C263.083 380.464 262.811 380.555 262.624 380.736C262.443 380.917 262.352 381.232 262.352 381.68V384H261.44V379.592H262.352V380.232Z" fill="#4F4F4F"/>
<path d="M301.456 378.44V384H300.544V380.192L298.848 384H298.216L296.512 380.192V384H295.6V378.44H296.584L298.536 382.8L300.48 378.44H301.456ZM302.271 381.776C302.271 381.333 302.361 380.941 302.543 380.6C302.729 380.259 302.98 379.995 303.295 379.808C303.615 379.616 303.967 379.52 304.351 379.52C304.697 379.52 304.999 379.589 305.255 379.728C305.516 379.861 305.724 380.029 305.879 380.232V379.592H306.799V384H305.879V383.344C305.724 383.552 305.513 383.725 305.247 383.864C304.98 384.003 304.676 384.072 304.335 384.072C303.956 384.072 303.609 383.976 303.295 383.784C302.98 383.587 302.729 383.315 302.543 382.968C302.361 382.616 302.271 382.219 302.271 381.776ZM305.879 381.792C305.879 381.488 305.815 381.224 305.687 381C305.564 380.776 305.401 380.605 305.199 380.488C304.996 380.371 304.777 380.312 304.543 380.312C304.308 380.312 304.089 380.371 303.887 380.488C303.684 380.6 303.519 380.768 303.391 380.992C303.268 381.211 303.207 381.472 303.207 381.776C303.207 382.08 303.268 382.347 303.391 382.576C303.519 382.805 303.684 382.981 303.887 383.104C304.095 383.221 304.313 383.28 304.543 383.28C304.777 383.28 304.996 383.221 305.199 383.104C305.401 382.987 305.564 382.816 305.687 382.592C305.815 382.363 305.879 382.096 305.879 381.792ZM311.885 379.592L309.181 386.072H308.237L309.133 383.928L307.397 379.592H308.413L309.653 382.952L310.941 379.592H311.885Z" fill="#4F4F4F"/>
<path d="M346.632 378.44V382.448C346.632 382.944 346.48 383.336 346.176 383.624C345.877 383.912 345.483 384.056 344.992 384.056C344.501 384.056 344.104 383.912 343.8 383.624C343.501 383.336 343.352 382.944 343.352 382.448H344.272C344.277 382.693 344.339 382.888 344.456 383.032C344.579 383.176 344.757 383.248 344.992 383.248C345.227 383.248 345.405 383.176 345.528 383.032C345.651 382.883 345.712 382.688 345.712 382.448V378.44H346.632ZM352.028 379.592V384H351.116V383.48C350.972 383.661 350.782 383.805 350.548 383.912C350.318 384.013 350.073 384.064 349.812 384.064C349.465 384.064 349.153 383.992 348.876 383.848C348.604 383.704 348.388 383.491 348.228 383.208C348.073 382.925 347.996 382.584 347.996 382.184V379.592H348.9V382.048C348.9 382.443 348.998 382.747 349.196 382.96C349.393 383.168 349.662 383.272 350.004 383.272C350.345 383.272 350.614 383.168 350.812 382.96C351.014 382.747 351.116 382.443 351.116 382.048V379.592H352.028ZM355.375 379.52C355.722 379.52 356.031 379.592 356.303 379.736C356.58 379.88 356.796 380.093 356.951 380.376C357.106 380.659 357.183 381 357.183 381.4V384H356.279V381.536C356.279 381.141 356.18 380.84 355.983 380.632C355.786 380.419 355.516 380.312 355.175 380.312C354.834 380.312 354.562 380.419 354.359 380.632C354.162 380.84 354.063 381.141 354.063 381.536V384H353.151V379.592H354.063V380.096C354.212 379.915 354.402 379.773 354.631 379.672C354.866 379.571 355.114 379.52 355.375 379.52Z" fill="#4F4F4F"/>
<path d="M395.632 378.44V382.448C395.632 382.944 395.48 383.336 395.176 383.624C394.877 383.912 394.483 384.056 393.992 384.056C393.501 384.056 393.104 383.912 392.8 383.624C392.501 383.336 392.352 382.944 392.352 382.448H393.272C393.277 382.693 393.339 382.888 393.456 383.032C393.579 383.176 393.757 383.248 393.992 383.248C394.227 383.248 394.405 383.176 394.528 383.032C394.651 382.883 394.712 382.688 394.712 382.448V378.44H395.632ZM401.028 379.592V384H400.116V383.48C399.972 383.661 399.782 383.805 399.548 383.912C399.318 384.013 399.073 384.064 398.812 384.064C398.465 384.064 398.153 383.992 397.876 383.848C397.604 383.704 397.388 383.491 397.228 383.208C397.073 382.925 396.996 382.584 396.996 382.184V379.592H397.9V382.048C397.9 382.443 397.998 382.747 398.196 382.96C398.393 383.168 398.662 383.272 399.004 383.272C399.345 383.272 399.614 383.168 399.812 382.96C400.014 382.747 400.116 382.443 400.116 382.048V379.592H401.028ZM403.063 378.08V384H402.151V378.08H403.063Z" fill="#4F4F4F"/>
<path d="M438.99 384.76H436.37L435.95 386H434.16L436.7 378.98H438.68L441.22 386H439.41L438.99 384.76ZM438.55 383.44L437.68 380.87L436.82 383.44H438.55ZM447.403 380.42V386H445.693V385.24C445.52 385.487 445.283 385.687 444.983 385.84C444.69 385.987 444.363 386.06 444.003 386.06C443.576 386.06 443.2 385.967 442.873 385.78C442.546 385.587 442.293 385.31 442.113 384.95C441.933 384.59 441.843 384.167 441.843 383.68V380.42H443.543V383.45C443.543 383.823 443.64 384.113 443.833 384.32C444.026 384.527 444.286 384.63 444.613 384.63C444.946 384.63 445.21 384.527 445.403 384.32C445.596 384.113 445.693 383.823 445.693 383.45V380.42H447.403ZM450.651 380.34C451.045 380.34 451.388 380.42 451.681 380.58C451.981 380.74 452.211 380.95 452.371 381.21V380.42H454.081V385.99C454.081 386.503 453.978 386.967 453.771 387.38C453.571 387.8 453.261 388.133 452.841 388.38C452.428 388.627 451.911 388.75 451.291 388.75C450.465 388.75 449.795 388.553 449.281 388.16C448.768 387.773 448.475 387.247 448.401 386.58H450.091C450.145 386.793 450.271 386.96 450.471 387.08C450.671 387.207 450.918 387.27 451.211 387.27C451.565 387.27 451.845 387.167 452.051 386.96C452.265 386.76 452.371 386.437 452.371 385.99V385.2C452.205 385.46 451.975 385.673 451.681 385.84C451.388 386 451.045 386.08 450.651 386.08C450.191 386.08 449.775 385.963 449.401 385.73C449.028 385.49 448.731 385.153 448.511 384.72C448.298 384.28 448.191 383.773 448.191 383.2C448.191 382.627 448.298 382.123 448.511 381.69C448.731 381.257 449.028 380.923 449.401 380.69C449.775 380.457 450.191 380.34 450.651 380.34ZM452.371 383.21C452.371 382.783 452.251 382.447 452.011 382.2C451.778 381.953 451.491 381.83 451.151 381.83C450.811 381.83 450.521 381.953 450.281 382.2C450.048 382.44 449.931 382.773 449.931 383.2C449.931 383.627 450.048 383.967 450.281 384.22C450.521 384.467 450.811 384.59 451.151 384.59C451.491 384.59 451.778 384.467 452.011 384.22C452.251 383.973 452.371 383.637 452.371 383.21Z" fill="#4F4F4F"/>
<path d="M486.432 384.056C486.059 384.056 485.723 383.992 485.424 383.864C485.125 383.731 484.891 383.544 484.72 383.304C484.549 383.064 484.464 382.784 484.464 382.464H485.44C485.461 382.704 485.555 382.901 485.72 383.056C485.891 383.211 486.128 383.288 486.432 383.288C486.747 383.288 486.992 383.213 487.168 383.064C487.344 382.909 487.432 382.712 487.432 382.472C487.432 382.285 487.376 382.133 487.264 382.016C487.157 381.899 487.021 381.808 486.856 381.744C486.696 381.68 486.472 381.611 486.184 381.536C485.821 381.44 485.525 381.344 485.296 381.248C485.072 381.147 484.88 380.992 484.72 380.784C484.56 380.576 484.48 380.299 484.48 379.952C484.48 379.632 484.56 379.352 484.72 379.112C484.88 378.872 485.104 378.688 485.392 378.56C485.68 378.432 486.013 378.368 486.392 378.368C486.931 378.368 487.371 378.504 487.712 378.776C488.059 379.043 488.251 379.411 488.288 379.88H487.28C487.264 379.677 487.168 379.504 486.992 379.36C486.816 379.216 486.584 379.144 486.296 379.144C486.035 379.144 485.821 379.211 485.656 379.344C485.491 379.477 485.408 379.669 485.408 379.92C485.408 380.091 485.459 380.232 485.56 380.344C485.667 380.451 485.8 380.536 485.96 380.6C486.12 380.664 486.339 380.733 486.616 380.808C486.984 380.909 487.283 381.011 487.512 381.112C487.747 381.213 487.944 381.371 488.104 381.584C488.269 381.792 488.352 382.072 488.352 382.424C488.352 382.707 488.275 382.973 488.12 383.224C487.971 383.475 487.749 383.677 487.456 383.832C487.168 383.981 486.827 384.056 486.432 384.056ZM493.388 381.688C493.388 381.853 493.377 382.003 493.356 382.136H489.988C490.015 382.488 490.145 382.771 490.38 382.984C490.615 383.197 490.903 383.304 491.244 383.304C491.735 383.304 492.081 383.099 492.284 382.688H493.268C493.135 383.093 492.892 383.427 492.54 383.688C492.193 383.944 491.761 384.072 491.244 384.072C490.823 384.072 490.444 383.979 490.108 383.792C489.777 383.6 489.516 383.333 489.324 382.992C489.137 382.645 489.044 382.245 489.044 381.792C489.044 381.339 489.135 380.941 489.316 380.6C489.503 380.253 489.761 379.987 490.092 379.8C490.428 379.613 490.812 379.52 491.244 379.52C491.66 379.52 492.031 379.611 492.356 379.792C492.681 379.973 492.935 380.229 493.116 380.56C493.297 380.885 493.388 381.261 493.388 381.688ZM492.436 381.4C492.431 381.064 492.311 380.795 492.076 380.592C491.841 380.389 491.551 380.288 491.204 380.288C490.889 380.288 490.62 380.389 490.396 380.592C490.172 380.789 490.039 381.059 489.996 381.4H492.436ZM495.118 380.24C495.272 380.037 495.483 379.867 495.75 379.728C496.016 379.589 496.318 379.52 496.654 379.52C497.038 379.52 497.387 379.616 497.702 379.808C498.022 379.995 498.272 380.259 498.454 380.6C498.635 380.941 498.726 381.333 498.726 381.776C498.726 382.219 498.635 382.616 498.454 382.968C498.272 383.315 498.022 383.587 497.702 383.784C497.387 383.976 497.038 384.072 496.654 384.072C496.318 384.072 496.019 384.005 495.758 383.872C495.496 383.733 495.283 383.563 495.118 383.36V386.096H494.206V379.592H495.118V380.24ZM497.798 381.776C497.798 381.472 497.734 381.211 497.606 380.992C497.483 380.768 497.318 380.6 497.11 380.488C496.907 380.371 496.688 380.312 496.454 380.312C496.224 380.312 496.006 380.371 495.798 380.488C495.595 380.605 495.43 380.776 495.302 381C495.179 381.224 495.118 381.488 495.118 381.792C495.118 382.096 495.179 382.363 495.302 382.592C495.43 382.816 495.595 382.987 495.798 383.104C496.006 383.221 496.224 383.28 496.454 383.28C496.688 383.28 496.907 383.221 497.11 383.104C497.318 382.981 497.483 382.805 497.606 382.576C497.734 382.347 497.798 382.08 497.798 381.776Z" fill="#4F4F4F"/>
<path d="M535.136 384.056C534.619 384.056 534.141 383.936 533.704 383.696C533.272 383.451 532.928 383.112 532.672 382.68C532.421 382.243 532.296 381.752 532.296 381.208C532.296 380.664 532.421 380.176 532.672 379.744C532.928 379.312 533.272 378.976 533.704 378.736C534.141 378.491 534.619 378.368 535.136 378.368C535.659 378.368 536.136 378.491 536.568 378.736C537.005 378.976 537.349 379.312 537.6 379.744C537.851 380.176 537.976 380.664 537.976 381.208C537.976 381.752 537.851 382.243 537.6 382.68C537.349 383.112 537.005 383.451 536.568 383.696C536.136 383.936 535.659 384.056 535.136 384.056ZM535.136 383.264C535.504 383.264 535.832 383.181 536.12 383.016C536.408 382.845 536.632 382.605 536.792 382.296C536.957 381.981 537.04 381.619 537.04 381.208C537.04 380.797 536.957 380.437 536.792 380.128C536.632 379.819 536.408 379.581 536.12 379.416C535.832 379.251 535.504 379.168 535.136 379.168C534.768 379.168 534.44 379.251 534.152 379.416C533.864 379.581 533.637 379.819 533.472 380.128C533.312 380.437 533.232 380.797 533.232 381.208C533.232 381.619 533.312 381.981 533.472 382.296C533.637 382.605 533.864 382.845 534.152 383.016C534.44 383.181 534.768 383.264 535.136 383.264ZM538.489 381.792C538.489 381.339 538.58 380.941 538.761 380.6C538.948 380.253 539.204 379.987 539.529 379.8C539.855 379.613 540.228 379.52 540.649 379.52C541.183 379.52 541.623 379.648 541.969 379.904C542.321 380.155 542.559 380.515 542.681 380.984H541.697C541.617 380.765 541.489 380.595 541.313 380.472C541.137 380.349 540.916 380.288 540.649 380.288C540.276 380.288 539.977 380.421 539.753 380.688C539.535 380.949 539.425 381.317 539.425 381.792C539.425 382.267 539.535 382.637 539.753 382.904C539.977 383.171 540.276 383.304 540.649 383.304C541.177 383.304 541.527 383.072 541.697 382.608H542.681C542.553 383.056 542.313 383.413 541.961 383.68C541.609 383.941 541.172 384.072 540.649 384.072C540.228 384.072 539.855 383.979 539.529 383.792C539.204 383.6 538.948 383.333 538.761 382.992C538.58 382.645 538.489 382.245 538.489 381.792ZM544.574 380.336V382.776C544.574 382.941 544.612 383.061 544.686 383.136C544.766 383.205 544.9 383.24 545.086 383.24H545.646V384H544.926C544.516 384 544.201 383.904 543.982 383.712C543.764 383.52 543.654 383.208 543.654 382.776V380.336H543.134V379.592H543.654V378.496H544.574V379.592H545.646V380.336H544.574Z" fill="#4F4F4F"/>
<path d="M583.168 384H582.256L579.512 379.848V384H578.6V378.432H579.512L582.256 382.576V378.432H583.168V384ZM586.198 384.072C585.782 384.072 585.406 383.979 585.07 383.792C584.734 383.6 584.47 383.333 584.278 382.992C584.086 382.645 583.99 382.245 583.99 381.792C583.99 381.344 584.088 380.947 584.286 380.6C584.483 380.253 584.752 379.987 585.094 379.8C585.435 379.613 585.816 379.52 586.238 379.52C586.659 379.52 587.04 379.613 587.382 379.8C587.723 379.987 587.992 380.253 588.19 380.6C588.387 380.947 588.486 381.344 588.486 381.792C588.486 382.24 588.384 382.637 588.182 382.984C587.979 383.331 587.702 383.6 587.35 383.792C587.003 383.979 586.619 384.072 586.198 384.072ZM586.198 383.28C586.432 383.28 586.651 383.224 586.854 383.112C587.062 383 587.23 382.832 587.358 382.608C587.486 382.384 587.55 382.112 587.55 381.792C587.55 381.472 587.488 381.203 587.366 380.984C587.243 380.76 587.08 380.592 586.878 380.48C586.675 380.368 586.456 380.312 586.222 380.312C585.987 380.312 585.768 380.368 585.566 380.48C585.368 380.592 585.211 380.76 585.094 380.984C584.976 381.203 584.918 381.472 584.918 381.792C584.918 382.267 585.038 382.635 585.278 382.896C585.523 383.152 585.83 383.28 586.198 383.28ZM591.011 383.184L592.259 379.592H593.227L591.547 384H590.459L588.787 379.592H589.763L591.011 383.184Z" fill="#4F4F4F"/>
<path d="M627.416 378.44C628.008 378.44 628.525 378.555 628.968 378.784C629.416 379.008 629.76 379.333 630 379.76C630.245 380.181 630.368 380.675 630.368 381.24C630.368 381.805 630.245 382.296 630 382.712C629.76 383.128 629.416 383.448 628.968 383.672C628.525 383.891 628.008 384 627.416 384H625.6V378.44H627.416ZM627.416 383.256C628.067 383.256 628.565 383.08 628.912 382.728C629.259 382.376 629.432 381.88 629.432 381.24C629.432 380.595 629.259 380.091 628.912 379.728C628.565 379.365 628.067 379.184 627.416 379.184H626.512V383.256H627.416ZM635.232 381.688C635.232 381.853 635.221 382.003 635.2 382.136H631.832C631.859 382.488 631.989 382.771 632.224 382.984C632.459 383.197 632.747 383.304 633.088 383.304C633.579 383.304 633.925 383.099 634.128 382.688H635.112C634.979 383.093 634.736 383.427 634.384 383.688C634.037 383.944 633.605 384.072 633.088 384.072C632.667 384.072 632.288 383.979 631.952 383.792C631.621 383.6 631.36 383.333 631.168 382.992C630.981 382.645 630.888 382.245 630.888 381.792C630.888 381.339 630.979 380.941 631.16 380.6C631.347 380.253 631.605 379.987 631.936 379.8C632.272 379.613 632.656 379.52 633.088 379.52C633.504 379.52 633.875 379.611 634.2 379.792C634.525 379.973 634.779 380.229 634.96 380.56C635.141 380.885 635.232 381.261 635.232 381.688ZM634.28 381.4C634.275 381.064 634.155 380.795 633.92 380.592C633.685 380.389 633.395 380.288 633.048 380.288C632.733 380.288 632.464 380.389 632.24 380.592C632.016 380.789 631.883 381.059 631.84 381.4H634.28ZM635.745 381.792C635.745 381.339 635.836 380.941 636.017 380.6C636.204 380.253 636.46 379.987 636.785 379.8C637.111 379.613 637.484 379.52 637.905 379.52C638.439 379.52 638.879 379.648 639.225 379.904C639.577 380.155 639.815 380.515 639.937 380.984H638.953C638.873 380.765 638.745 380.595 638.569 380.472C638.393 380.349 638.172 380.288 637.905 380.288C637.532 380.288 637.233 380.421 637.009 380.688C636.791 380.949 636.681 381.317 636.681 381.792C636.681 382.267 636.791 382.637 637.009 382.904C637.233 383.171 637.532 383.304 637.905 383.304C638.433 383.304 638.783 383.072 638.953 382.608H639.937C639.809 383.056 639.569 383.413 639.217 383.68C638.865 383.941 638.428 384.072 637.905 384.072C637.484 384.072 637.111 383.979 636.785 383.792C636.46 383.6 636.204 383.333 636.017 382.992C635.836 382.645 635.745 382.245 635.745 381.792Z" fill="#4F4F4F"/>
<rect x="100" y="252" width="31" height="111" rx="8" fill="#F2EFFF"/>
<rect x="147" y="221" width="31" height="142" rx="8" fill="#F2EFFF"/>
<rect x="194" y="187" width="31" height="176" rx="8" fill="#F2EFFF"/>
<rect x="241" y="232" width="31" height="131" rx="8" fill="#F2EFFF"/>
<rect x="288" y="269" width="31" height="94" rx="8" fill="#F2EFFF"/>
<rect x="335" y="232" width="31" height="131" rx="8" fill="#F2EFFF"/>
<rect x="382" y="221" width="31" height="142" rx="8" fill="#F2EFFF"/>
<g filter="url(#filter1_d_1_692)">
<rect x="424" y="156" width="40" height="207" rx="8" fill="#5932EA"/>
</g>
<rect x="476" y="182" width="31" height="181" rx="8" fill="#F2EFFF"/>
<rect x="523" y="211" width="31" height="152" rx="8" fill="#F2EFFF"/>
<rect x="570" y="252" width="31" height="111" rx="8" fill="#F2EFFF"/>
<rect x="617" y="195" width="31" height="168" rx="8" fill="#F2EFFF"/>
<path d="M413 124C413 120.686 415.686 118 419 118H469C472.314 118 475 120.686 475 124V136C475 139.314 472.314 142 469 142H447L443.5 147.5L439.5 142H419C415.686 142 413 139.314 413 136V124Z" fill="black"/>
<path d="M442.66 128.556C442.7 127.756 442.98 127.14 443.5 126.708C444.028 126.268 444.72 126.048 445.576 126.048C446.16 126.048 446.66 126.152 447.076 126.36C447.492 126.56 447.804 126.836 448.012 127.188C448.228 127.532 448.336 127.924 448.336 128.364C448.336 128.868 448.204 129.296 447.94 129.648C447.684 129.992 447.376 130.224 447.016 130.344V130.392C447.48 130.536 447.84 130.792 448.096 131.16C448.36 131.528 448.492 132 448.492 132.576C448.492 133.056 448.38 133.484 448.156 133.86C447.94 134.236 447.616 134.532 447.184 134.748C446.76 134.956 446.248 135.06 445.648 135.06C444.744 135.06 444.008 134.832 443.44 134.376C442.872 133.92 442.572 133.248 442.54 132.36H444.172C444.188 132.752 444.32 133.068 444.568 133.308C444.824 133.54 445.172 133.656 445.612 133.656C446.02 133.656 446.332 133.544 446.548 133.32C446.772 133.088 446.884 132.792 446.884 132.432C446.884 131.952 446.732 131.608 446.428 131.4C446.124 131.192 445.652 131.088 445.012 131.088H444.664V129.708H445.012C446.148 129.708 446.716 129.328 446.716 128.568C446.716 128.224 446.612 127.956 446.404 127.764C446.204 127.572 445.912 127.476 445.528 127.476C445.152 127.476 444.86 127.58 444.652 127.788C444.452 127.988 444.336 128.244 444.304 128.556H442.66ZM455.58 127.704H451.692V129.756C451.86 129.548 452.1 129.38 452.412 129.252C452.724 129.116 453.056 129.048 453.408 129.048C454.048 129.048 454.572 129.188 454.98 129.468C455.388 129.748 455.684 130.108 455.868 130.548C456.052 130.98 456.144 131.444 456.144 131.94C456.144 132.86 455.88 133.6 455.352 134.16C454.832 134.72 454.088 135 453.12 135C452.208 135 451.48 134.772 450.936 134.316C450.392 133.86 450.084 133.264 450.012 132.528H451.644C451.716 132.848 451.876 133.104 452.124 133.296C452.38 133.488 452.704 133.584 453.096 133.584C453.568 133.584 453.924 133.436 454.164 133.14C454.404 132.844 454.524 132.452 454.524 131.964C454.524 131.468 454.4 131.092 454.152 130.836C453.912 130.572 453.556 130.44 453.084 130.44C452.748 130.44 452.468 130.524 452.244 130.692C452.02 130.86 451.86 131.084 451.764 131.364H450.156V126.228H455.58V127.704ZM457.11 128.4C457.11 127.792 457.286 127.316 457.638 126.972C457.998 126.628 458.458 126.456 459.018 126.456C459.578 126.456 460.034 126.628 460.386 126.972C460.746 127.316 460.926 127.792 460.926 128.4C460.926 129.016 460.746 129.496 460.386 129.84C460.034 130.184 459.578 130.356 459.018 130.356C458.458 130.356 457.998 130.184 457.638 129.84C457.286 129.496 457.11 129.016 457.11 128.4ZM464.814 126.6L460.098 135H458.466L463.17 126.6H464.814ZM459.006 127.464C458.566 127.464 458.346 127.776 458.346 128.4C458.346 129.032 458.566 129.348 459.006 129.348C459.222 129.348 459.39 129.272 459.51 129.12C459.63 128.96 459.69 128.72 459.69 128.4C459.69 127.776 459.462 127.464 459.006 127.464ZM462.378 133.188C462.378 132.572 462.554 132.096 462.906 131.76C463.266 131.416 463.726 131.244 464.286 131.244C464.846 131.244 465.298 131.416 465.642 131.76C465.994 132.096 466.17 132.572 466.17 133.188C466.17 133.804 465.994 134.284 465.642 134.628C465.298 134.972 464.846 135.144 464.286 135.144C463.718 135.144 463.258 134.972 462.906 134.628C462.554 134.284 462.378 133.804 462.378 133.188ZM464.274 132.252C463.818 132.252 463.59 132.564 463.59 133.188C463.59 133.82 463.818 134.136 464.274 134.136C464.722 134.136 464.946 133.82 464.946 133.188C464.946 132.564 464.722 132.252 464.274 132.252Z" fill="white"/>
<path d="M436 127L429.467 132.88L426.978 129.52L422 134" stroke="#00AC4F" stroke-width="2" stroke-linecap="round" stroke-linejoin="round"/>
<path d="M433 127H436V130" stroke="#00AC4F" stroke-width="2" stroke-linecap="round" stroke-linejoin="round"/>
<defs>
<filter id="filter0_d_1_692" x="0" y="0" width="748" height="498" filterUnits="userSpaceOnUse" color-interpolation-filters="sRGB">
<feFlood flood-opacity="0" result="BackgroundImageFix"/>
<feColorMatrix in="SourceAlpha" type="matrix" values="0 0 0 0 0 0 0 0 0 0 0 0 0 0 0 0 0 0 127 0" result="hardAlpha"/>
<feOffset dy="10"/>
<feGaussianBlur stdDeviation="30"/>
<feComposite in2="hardAlpha" operator="out"/>
<feColorMatrix type="matrix" values="0 0 0 0 0.885625 0 0 0 0 0.92625 0 0 0 0 0.975 0 0 0 0.5 0"/>
<feBlend mode="normal" in2="BackgroundImageFix" result="effect1_dropShadow_1_692"/>
<feBlend mode="normal" in="SourceGraphic" in2="effect1_dropShadow_1_692" result="shape"/>
</filter>
<filter id="filter1_d_1_692" x="412" y="152" width="64" height="231" filterUnits="userSpaceOnUse" color-interpolation-filters="sRGB">
<feFlood flood-opacity="0" result="BackgroundImageFix"/>
<feColorMatrix in="SourceAlpha" type="matrix" values="0 0 0 0 0 0 0 0 0 0 0 0 0 0 0 0 0 0 127 0" result="hardAlpha"/>
<feOffset dy="8"/>
<feGaussianBlur stdDeviation="6"/>
<feComposite in2="hardAlpha" operator="out"/>
<feColorMatrix type="matrix" values="0 0 0 0 0.52849 0 0 0 0 0.566891 0 0 0 0 0.9125 0 0 0 0.3 0"/>
<feBlend mode="normal" in2="BackgroundImageFix" result="effect1_dropShadow_1_692"/>
<feBlend mode="normal" in="SourceGraphic" in2="effect1_dropShadow_1_692" result="shape"/>
</filter>
</defs>
</svg>
