<svg width="101" height="109" viewBox="0 0 101 109" fill="none" xmlns="http://www.w3.org/2000/svg">
<ellipse cx="50.2831" cy="54.3284" rx="49.8533" ry="54.2355" fill="url(#paint0_linear_1_990)"/>
<path d="M40.2503 79.9119C35.3065 79.9119 31.256 76.0024 31.256 71.189V66.579C31.256 65.6525 31.9622 64.8842 32.8139 64.8842C33.6656 64.8842 34.3718 65.6525 34.3718 66.579C34.3718 69.4038 36.8852 71.528 40.2503 71.528C43.6154 71.528 46.1288 69.4038 46.1288 66.579C46.1288 65.6525 46.8351 64.8842 47.6867 64.8842C48.5384 64.8842 49.2446 65.6525 49.2446 66.579V71.189C49.2446 76.0024 45.2148 79.9119 40.2503 79.9119ZM34.9118 73.4037C35.8258 75.2567 37.8822 76.5222 40.2503 76.5222C42.6183 76.5222 44.6748 75.2341 45.5887 73.4037C44.1139 74.3754 42.2859 74.9403 40.2503 74.9403C38.2146 74.9403 36.3866 74.3754 34.9118 73.4037Z" fill="#0F5FC2"/>
<path d="M40.2503 68.7254C36.8436 68.7254 33.7902 67.0306 32.2738 64.3414C31.6091 63.1663 31.256 61.7878 31.256 60.3867C31.256 58.0139 32.2115 55.7993 33.9563 54.1496C37.3214 50.9408 43.1169 50.9409 46.5027 54.1273C48.2476 55.7995 49.2239 58.0139 49.2239 60.3867C49.2239 61.7878 48.8707 63.1663 48.206 64.3414C46.7104 67.0306 43.6569 68.7254 40.2503 68.7254ZM40.2503 55.0538C38.63 55.0538 37.1345 55.6411 36.0128 56.7032C34.9534 57.6976 34.3718 59.0082 34.3718 60.3867C34.3718 61.1777 34.5587 61.901 34.9326 62.579C35.8881 64.2964 37.9238 65.3586 40.2503 65.3586C42.5768 65.3586 44.6124 64.2964 45.5472 62.6016C45.9211 61.9462 46.1081 61.2005 46.1081 60.4096C46.1081 59.0311 45.5265 57.7202 44.4671 56.7032C43.3662 55.6411 41.8705 55.0538 40.2503 55.0538Z" fill="#0F5FC2"/>
<path d="M40.2503 74.9412C35.1195 74.9412 31.256 71.3481 31.256 66.6025V60.388C31.256 55.5746 35.2857 51.6652 40.2503 51.6652C42.5975 51.6652 44.841 52.5465 46.5235 54.1284C48.2683 55.8006 49.2446 58.0152 49.2446 60.388V66.6025C49.2446 71.3481 45.381 74.9412 40.2503 74.9412ZM40.2503 55.0549C37.0098 55.0549 34.3718 57.4503 34.3718 60.388V66.6025C34.3718 69.4273 36.8852 71.5515 40.2503 71.5515C43.6154 71.5515 46.1288 69.4273 46.1288 66.6025V60.388C46.1288 59.0096 45.5473 57.6989 44.4879 56.6819C43.3662 55.6424 41.8705 55.0549 40.2503 55.0549Z" fill="#0F5FC2"/>
<path d="M64.9071 61.9478C61.7705 61.9478 59.1116 59.4168 58.8624 56.1627C58.6962 54.287 59.3194 52.4566 60.5657 51.1233C61.6043 49.9482 63.0791 49.2928 64.6371 49.2928H68.9784C71.0349 49.3606 72.6136 51.1233 72.6136 53.2927V57.9479C72.6136 60.1174 71.0349 61.88 69.0408 61.9478H64.9071ZM68.9161 52.6826H64.6578C63.9308 52.6826 63.2661 52.9763 62.7883 53.5187C62.1859 54.1514 61.8951 55.0102 61.9782 55.8689C62.0821 57.3604 63.4115 58.5581 64.9071 58.5581H68.9784C69.2485 58.5581 69.4977 58.2869 69.4977 57.9479V53.2927C69.4977 52.9537 69.2485 52.7052 68.9161 52.6826Z" fill="#0F5FC2"/>
<path d="M58.593 76.5231H53.3999C52.5482 76.5231 51.842 75.7548 51.842 74.8283C51.842 73.9017 52.5482 73.1334 53.3999 73.1334H58.593C63.9522 73.1334 67.4211 69.3595 67.4211 63.5292V61.9473H64.9077C61.7711 61.9473 59.1123 59.4163 58.863 56.1622C58.6968 54.2865 59.3202 52.4561 60.5665 51.1228C61.6051 49.9477 63.0797 49.2924 64.6377 49.2924H67.4004V47.7105C67.4004 42.4225 64.5548 38.7842 59.9433 38.1966C59.4448 38.1062 59.0084 38.1063 58.5722 38.1063H39.8772C39.3787 38.1063 38.9009 38.1514 38.4232 38.2192C33.8533 38.852 31.0491 42.4677 31.0491 47.7105V52.2301C31.0491 53.1566 30.3428 53.925 29.4911 53.925C28.6395 53.925 27.9332 53.1566 27.9332 52.2301V47.7105C27.9332 40.7503 31.88 35.7109 38.0078 34.8748C38.5687 34.7844 39.2125 34.7166 39.8772 34.7166H58.5722C59.0707 34.7166 59.7147 34.7392 60.3794 34.8521C66.5072 35.6205 70.5162 40.6825 70.5162 47.7105V50.9872C70.5162 51.9137 69.8099 52.6821 68.9583 52.6821H64.6377C63.9106 52.6821 63.2461 52.9758 62.7684 53.5182C62.166 54.151 61.875 55.0097 61.958 55.8684C62.0619 57.3599 63.3915 58.5576 64.8871 58.5576H68.9791C69.8307 58.5576 70.537 59.3259 70.537 60.2525V63.5292C70.537 71.3029 65.7386 76.5231 58.593 76.5231Z" fill="#0F5FC2"/>
<defs>
<linearGradient id="paint0_linear_1_990" x1="88.9194" y1="0.0928983" x2="44.2621" y2="106.026" gradientUnits="userSpaceOnUse">
<stop stop-color="#CAF1FF"/>
<stop offset="1" stop-color="#CDF4FF"/>
</linearGradient>
</defs>
</svg>
