<svg width="100" height="109" viewBox="0 0 100 109" fill="none" xmlns="http://www.w3.org/2000/svg">
<ellipse cx="49.9301" cy="54.3284" rx="49.8533" ry="54.2355" fill="url(#paint0_linear_1_1006)"/>
<path d="M59.2787 46.7128C58.427 46.7128 57.7207 45.9445 57.7207 45.0179V41.8994C57.7207 39.5266 56.786 37.2216 55.1658 35.6171C53.5248 33.9901 51.406 33.2443 49.1626 33.4703C45.4236 33.8545 42.1416 38.0125 42.1416 42.3514V44.5434C42.1416 45.4699 41.4353 46.2382 40.5837 46.2382C39.732 46.2382 39.0258 45.4699 39.0258 44.5434V42.3288C39.0258 36.2499 43.5333 30.6455 48.8718 30.0806C51.9876 29.7642 54.9788 30.8263 57.2638 33.1087C59.5279 35.3459 60.8366 38.5549 60.8366 41.8994V45.0179C60.8366 45.9445 60.1303 46.7128 59.2787 46.7128Z" fill="#DA001A"/>
<path d="M56.1624 78.6218H43.6991C34.1024 78.6218 32.316 73.7632 31.859 69.0402L30.3011 55.5039C30.0726 53.0633 29.9895 49.5606 32.1705 46.9393C34.04 44.6794 37.1351 43.5947 41.6219 43.5947H58.2396C62.7472 43.5947 65.8423 44.702 67.691 46.9393C69.8513 49.5606 69.789 53.0633 69.5605 55.4587L68.0026 69.0402C67.5456 73.7632 65.7592 78.6218 56.1624 78.6218ZM41.6219 46.9844C38.1114 46.9844 35.7018 47.7302 34.4763 49.2217C33.4584 50.442 33.1261 52.3176 33.3961 55.1198L34.954 68.6561C35.3072 72.2718 36.2211 75.2547 43.6991 75.2547H56.1624C63.6404 75.2547 64.5544 72.2944 64.9075 68.7013L66.4654 55.1198C66.7355 52.3628 66.4031 50.4872 65.3853 49.2443C64.1597 47.7302 61.7501 46.9844 58.2396 46.9844H41.6219Z" fill="#DA001A"/>
<path d="M57.0357 56.9273C55.8725 56.9273 54.9377 55.9104 54.9377 54.6675C54.9377 53.4246 55.8725 52.4077 57.015 52.4077C58.1574 52.4077 59.0922 53.4246 59.0922 54.6675C59.0922 55.9104 58.1782 56.9273 57.0357 56.9273Z" fill="#DA001A"/>
<path d="M42.4951 56.9273C41.3318 56.9273 40.3971 55.9104 40.3971 54.6675C40.3971 53.4246 41.3318 52.4077 42.4743 52.4077C43.6168 52.4077 44.5515 53.4246 44.5515 54.6675C44.5515 55.9104 43.6376 56.9273 42.4951 56.9273Z" fill="#DA001A"/>
<defs>
<linearGradient id="paint0_linear_1_1006" x1="88.5664" y1="0.0928983" x2="43.9091" y2="106.026" gradientUnits="userSpaceOnUse">
<stop stop-color="#FFA3CF"/>
<stop offset="1" stop-color="#FFD5F3"/>
</linearGradient>
</defs>
</svg>
