<svg width="101" height="109" viewBox="0 0 101 109" fill="none" xmlns="http://www.w3.org/2000/svg">
<ellipse cx="50.6353" cy="54.3284" rx="49.8533" ry="54.2355" fill="url(#paint0_linear_1_974)"/>
<path d="M52.8163 65.7421H48.9112C46.1485 65.7421 43.8843 63.2111 43.8843 60.0925C43.8843 59.166 44.5905 58.3977 45.4422 58.3977C46.2939 58.3977 47.0001 59.166 47.0001 60.0925C47.0001 61.3354 47.8518 62.3523 48.9112 62.3523H52.8163C53.6264 62.3523 54.2704 61.5614 54.2704 60.5897C54.2704 59.3694 53.9588 59.1886 53.2525 58.9174L47.0001 56.5446C45.6707 56.0475 43.8843 54.9853 43.8843 51.6634C43.8843 48.8387 45.9407 46.5111 48.4542 46.5111H52.3593C55.122 46.5111 57.3862 49.0421 57.3862 52.1606C57.3862 53.0871 56.68 53.8554 55.8283 53.8554C54.9766 53.8554 54.2704 53.0871 54.2704 52.1606C54.2704 50.9177 53.4187 49.9008 52.3593 49.9008H48.4542C47.644 49.9008 47.0001 50.6918 47.0001 51.6634C47.0001 52.8837 47.3117 53.0645 48.0179 53.3357L54.2704 55.7085C55.5998 56.2056 57.3862 57.2678 57.3862 60.5897C57.3862 63.437 55.3298 65.7421 52.8163 65.7421Z" fill="#00AC4F"/>
<path d="M50.6353 68.0015C49.7836 68.0015 49.0774 67.2331 49.0774 66.3066V45.9683C49.0774 45.0418 49.7836 44.2734 50.6353 44.2734C51.487 44.2734 52.1932 45.0418 52.1932 45.9683V66.3066C52.1932 67.2331 51.487 68.0015 50.6353 68.0015Z" fill="#00AC4F"/>
<path d="M50.6353 80.4304C38.3174 80.4304 28.3052 69.5381 28.3052 56.1374C28.3052 42.7367 38.3174 31.8444 50.6353 31.8444C51.487 31.8444 52.1932 32.6127 52.1932 33.5392C52.1932 34.4657 51.487 35.2341 50.6353 35.2341C40.0415 35.2341 31.421 44.6123 31.421 56.1374C31.421 67.6624 40.0415 77.0406 50.6353 77.0406C61.2291 77.0406 69.8496 67.6624 69.8496 56.1374C69.8496 55.2108 70.5559 54.4425 71.4075 54.4425C72.2592 54.4425 72.9654 55.2108 72.9654 56.1374C72.9654 69.5381 62.9532 80.4304 50.6353 80.4304Z" fill="#00AC4F"/>
<path d="M69.3303 46.5332H61.0214C60.1698 46.5332 59.4635 45.7649 59.4635 44.8384V35.7991C59.4635 34.8726 60.1698 34.1042 61.0214 34.1042C61.8731 34.1042 62.5793 34.8726 62.5793 35.7991V43.1435H69.3303C70.182 43.1435 70.8882 43.9118 70.8882 44.8384C70.8882 45.7649 70.182 46.5332 69.3303 46.5332Z" fill="#00AC4F"/>
<path d="M61.0203 46.5342C60.6256 46.5342 60.2309 46.376 59.9193 46.0371C59.3169 45.3817 59.3169 44.297 59.9193 43.6417L70.3054 32.3426C70.9078 31.6872 71.9049 31.6872 72.5073 32.3426C73.1097 32.9979 73.1097 34.0826 72.5073 34.738L62.1212 46.0371C61.8096 46.376 61.4149 46.5342 61.0203 46.5342Z" fill="#00AC4F"/>
<defs>
<linearGradient id="paint0_linear_1_974" x1="89.2716" y1="0.0928983" x2="44.6143" y2="106.026" gradientUnits="userSpaceOnUse">
<stop stop-color="#D3FFE7"/>
<stop offset="1" stop-color="#EFFFF6"/>
</linearGradient>
</defs>
</svg>
